STARTFONT 2.1
FONT -Linotype-Times-Bold-R-Normal--12-120-72-72-P-65-ISO8859-1
SIZE 12 72 72
FONTBOUNDINGBOX 16 17 -3 -4

STARTPROPERTIES 22
FONTNAME_REGISTRY "-"
FOUNDRY "Linotype"
FAMILY_NAME "Times"
WEIGHT_NAME "Bold"
SLANT "R"
SETWIDTH_NAME "Normal"
ADD_STYLE_NAME ""
PIXEL_SIZE 12
POINT_SIZE 120
RESOLUTION_X 72
RESOLUTION_Y 72
SPACING "P"
CHARSET_REGISTRY "ISO8859"
CHARSET_ENCODING "1"
FULL_NAME "Times-Bold"
AVERAGE_WIDTH 65
WEIGHT 10
X_HEIGHT 6
QUAD_WIDTH 7
DEFAULT_CHAR 32
FONT_DESCENT 3
FONT_ASCENT 11
ENDPROPERTIES

CHARS 190

STARTCHAR space
ENCODING 32
SWIDTH 250 0
DWIDTH 3 0
BBX 1 1 0 0
BITMAP
00
ENDCHAR

STARTCHAR exclam
ENCODING 33
SWIDTH 333 0
DWIDTH 4 0
BBX 2 9 1 0
BITMAP
C0
C0
C0
C0
C0
C0
00
C0
C0
ENDCHAR

STARTCHAR quotedbl
ENCODING 34
SWIDTH 555 0
DWIDTH 7 0
BBX 5 4 0 5
BITMAP
D8
D8
D8
D8
ENDCHAR

STARTCHAR numbersign
ENCODING 35
SWIDTH 500 0
DWIDTH 6 0
BBX 6 9 0 0
BITMAP
28
28
FC
28
50
FC
50
50
50
ENDCHAR

STARTCHAR dollar
ENCODING 36
SWIDTH 500 0
DWIDTH 6 0
BBX 5 11 1 -1
BITMAP
20
78
A8
A8
E0
30
38
A8
A8
F0
20
ENDCHAR

STARTCHAR percent
ENCODING 37
SWIDTH 1000 0
DWIDTH 12 0
BBX 10 9 1 0
BITMAP
3900
6F00
CA00
CC00
75C0
0B40
1640
1640
2380
ENDCHAR

STARTCHAR ampersand
ENCODING 38
SWIDTH 833 0
DWIDTH 10 0
BBX 10 9 0 0
BITMAP
1E00
3200
3200
35C0
7880
CD00
C600
C700
79C0
ENDCHAR

STARTCHAR quoteright
ENCODING 39
SWIDTH 333 0
DWIDTH 4 0
BBX 2 4 1 5
BITMAP
C0
C0
40
80
ENDCHAR

STARTCHAR parenleft
ENCODING 40
SWIDTH 333 0
DWIDTH 4 0
BBX 4 12 0 -3
BITMAP
10
20
40
C0
C0
C0
C0
C0
C0
40
20
10
ENDCHAR

STARTCHAR parenright
ENCODING 41
SWIDTH 333 0
DWIDTH 4 0
BBX 4 12 0 -3
BITMAP
80
40
20
30
30
30
30
30
30
20
40
80
ENDCHAR

STARTCHAR asterisk
ENCODING 42
SWIDTH 500 0
DWIDTH 6 0
BBX 5 5 1 3
BITMAP
20
A8
70
A8
20
ENDCHAR

STARTCHAR plus
ENCODING 43
SWIDTH 570 0
DWIDTH 7 0
BBX 5 5 1 0
BITMAP
20
20
F8
20
20
ENDCHAR

STARTCHAR comma
ENCODING 44
SWIDTH 250 0
DWIDTH 3 0
BBX 2 4 1 -2
BITMAP
C0
C0
40
80
ENDCHAR

STARTCHAR minus
ENCODING 45
SWIDTH 570 0
DWIDTH 7 0
BBX 6 1 0 2
BITMAP
FC
ENDCHAR

STARTCHAR period
ENCODING 46
SWIDTH 250 0
DWIDTH 3 0
BBX 2 2 1 0
BITMAP
C0
C0
ENDCHAR

STARTCHAR slash
ENCODING 47
SWIDTH 278 0
DWIDTH 3 0
BBX 4 8 0 0
BITMAP
10
10
20
20
40
40
80
80
ENDCHAR

STARTCHAR zero
ENCODING 48
SWIDTH 500 0
DWIDTH 6 0
BBX 5 9 0 0
BITMAP
70
50
D8
D8
D8
D8
D8
50
70
ENDCHAR

STARTCHAR one
ENCODING 49
SWIDTH 500 0
DWIDTH 6 0
BBX 4 9 1 0
BITMAP
E0
60
60
60
60
60
60
60
F0
ENDCHAR

STARTCHAR two
ENCODING 50
SWIDTH 500 0
DWIDTH 6 0
BBX 5 9 0 0
BITMAP
70
F8
98
18
18
30
28
78
F8
ENDCHAR

STARTCHAR three
ENCODING 51
SWIDTH 500 0
DWIDTH 6 0
BBX 5 9 0 0
BITMAP
70
98
18
70
38
18
18
98
F0
ENDCHAR

STARTCHAR four
ENCODING 52
SWIDTH 500 0
DWIDTH 6 0
BBX 6 9 0 0
BITMAP
18
38
38
58
98
FC
FC
18
18
ENDCHAR

STARTCHAR five
ENCODING 53
SWIDTH 500 0
DWIDTH 6 0
BBX 5 9 0 0
BITMAP
78
78
40
F0
F8
18
08
C8
F0
ENDCHAR

STARTCHAR six
ENCODING 54
SWIDTH 500 0
DWIDTH 6 0
BBX 6 9 0 0
BITMAP
18
60
40
F8
CC
CC
CC
CC
78
ENDCHAR

STARTCHAR seven
ENCODING 55
SWIDTH 500 0
DWIDTH 6 0
BBX 5 9 0 0
BITMAP
F8
F8
98
10
10
30
20
20
60
ENDCHAR

STARTCHAR eight
ENCODING 56
SWIDTH 500 0
DWIDTH 6 0
BBX 6 9 0 0
BITMAP
78
CC
CC
E8
78
DC
CC
CC
78
ENDCHAR

STARTCHAR nine
ENCODING 57
SWIDTH 500 0
DWIDTH 6 0
BBX 6 9 0 0
BITMAP
78
CC
CC
CC
CC
7C
08
18
60
ENDCHAR

STARTCHAR colon
ENCODING 58
SWIDTH 333 0
DWIDTH 4 0
BBX 2 6 1 0
BITMAP
C0
C0
00
00
C0
C0
ENDCHAR

STARTCHAR semicolon
ENCODING 59
SWIDTH 333 0
DWIDTH 4 0
BBX 2 8 1 -2
BITMAP
C0
C0
00
00
C0
C0
40
80
ENDCHAR

STARTCHAR less
ENCODING 60
SWIDTH 570 0
DWIDTH 7 0
BBX 6 6 0 0
BITMAP
0C
30
C0
C0
30
0C
ENDCHAR

STARTCHAR equal
ENCODING 61
SWIDTH 570 0
DWIDTH 7 0
BBX 6 4 0 1
BITMAP
FC
00
00
FC
ENDCHAR

STARTCHAR greater
ENCODING 62
SWIDTH 570 0
DWIDTH 7 0
BBX 6 6 0 0
BITMAP
C0
30
0C
0C
30
C0
ENDCHAR

STARTCHAR question
ENCODING 63
SWIDTH 500 0
DWIDTH 6 0
BBX 5 9 0 0
BITMAP
70
D8
D8
18
30
20
00
60
60
ENDCHAR

STARTCHAR at
ENCODING 64
SWIDTH 930 0
DWIDTH 11 0
BBX 11 12 0 -3
BITMAP
0F80
3040
67A0
4DA0
D9A0
D920
D920
DB40
CD80
6000
3000
1F80
ENDCHAR

STARTCHAR A
ENCODING 65
SWIDTH 722 0
DWIDTH 9 0
BBX 8 9 0 0
BITMAP
10
10
18
38
2C
2C
7E
46
EF
ENDCHAR

STARTCHAR B
ENCODING 66
SWIDTH 667 0
DWIDTH 8 0
BBX 7 9 0 0
BITMAP
FC
66
66
66
7C
66
66
66
FC
ENDCHAR

STARTCHAR C
ENCODING 67
SWIDTH 722 0
DWIDTH 9 0
BBX 7 9 1 0
BITMAP
3E
62
C2
C0
C0
C0
C0
62
3C
ENDCHAR

STARTCHAR D
ENCODING 68
SWIDTH 722 0
DWIDTH 9 0
BBX 8 9 0 0
BITMAP
FC
66
63
63
63
63
63
66
FC
ENDCHAR

STARTCHAR E
ENCODING 69
SWIDTH 667 0
DWIDTH 8 0
BBX 8 9 0 0
BITMAP
FE
62
6A
68
78
68
69
63
FF
ENDCHAR

STARTCHAR F
ENCODING 70
SWIDTH 611 0
DWIDTH 7 0
BBX 7 9 0 0
BITMAP
FE
62
6A
68
78
68
68
60
F0
ENDCHAR

STARTCHAR G
ENCODING 71
SWIDTH 778 0
DWIDTH 9 0
BBX 9 9 0 0
BITMAP
3D00
6300
C100
C000
C000
C780
C300
6300
3F00
ENDCHAR

STARTCHAR H
ENCODING 72
SWIDTH 778 0
DWIDTH 9 0
BBX 9 9 0 0
BITMAP
F780
6300
6300
6300
7F00
6300
6300
6300
F780
ENDCHAR

STARTCHAR I
ENCODING 73
SWIDTH 389 0
DWIDTH 5 0
BBX 4 9 0 0
BITMAP
F0
60
60
60
60
60
60
60
F0
ENDCHAR

STARTCHAR J
ENCODING 74
SWIDTH 500 0
DWIDTH 6 0
BBX 6 11 0 -2
BITMAP
3C
18
18
18
18
18
18
18
D8
D8
70
ENDCHAR

STARTCHAR K
ENCODING 75
SWIDTH 778 0
DWIDTH 9 0
BBX 9 9 0 0
BITMAP
F780
6200
6400
6800
7800
6C00
6600
6300
F780
ENDCHAR

STARTCHAR L
ENCODING 76
SWIDTH 667 0
DWIDTH 8 0
BBX 7 9 0 0
BITMAP
F0
60
60
60
60
60
62
62
FE
ENDCHAR

STARTCHAR M
ENCODING 77
SWIDTH 944 0
DWIDTH 11 0
BBX 11 9 0 0
BITMAP
E1E0
71C0
71C0
5AC0
5AC0
4EC0
4CC0
44C0
E5E0
ENDCHAR

STARTCHAR N
ENCODING 78
SWIDTH 722 0
DWIDTH 9 0
BBX 9 9 0 0
BITMAP
E380
7100
7900
5900
4D00
4F00
4700
4300
E100
ENDCHAR

STARTCHAR O
ENCODING 79
SWIDTH 778 0
DWIDTH 9 0
BBX 8 9 1 0
BITMAP
3C
66
C3
C3
C3
C3
C3
66
3C
ENDCHAR

STARTCHAR P
ENCODING 80
SWIDTH 611 0
DWIDTH 7 0
BBX 7 9 0 0
BITMAP
FC
66
66
66
7C
60
60
60
F0
ENDCHAR

STARTCHAR Q
ENCODING 81
SWIDTH 778 0
DWIDTH 8 0
BBX 8 11 0 -2
BITMAP
3C
66
C3
C3
C3
C3
C3
66
3C
18
0E
ENDCHAR

STARTCHAR R
ENCODING 82
SWIDTH 722 0
DWIDTH 9 0
BBX 8 9 0 0
BITMAP
FC
66
66
64
78
6C
6C
66
F7
ENDCHAR

STARTCHAR S
ENCODING 83
SWIDTH 556 0
DWIDTH 7 0
BBX 6 9 0 0
BITMAP
7C
C4
C4
E0
78
1C
8C
8C
F8
ENDCHAR

STARTCHAR T
ENCODING 84
SWIDTH 667 0
DWIDTH 8 0
BBX 8 9 0 0
BITMAP
FF
99
99
18
18
18
18
18
3C
ENDCHAR

STARTCHAR U
ENCODING 85
SWIDTH 722 0
DWIDTH 9 0
BBX 9 9 0 0
BITMAP
F380
6100
6100
6100
6100
6100
6100
6300
3E00
ENDCHAR

STARTCHAR V
ENCODING 86
SWIDTH 722 0
DWIDTH 9 0
BBX 8 9 0 0
BITMAP
F7
62
62
32
34
1C
18
08
08
ENDCHAR

STARTCHAR W
ENCODING 87
SWIDTH 1000 0
DWIDTH 12 0
BBX 12 9 0 0
BITMAP
FF70
6620
6620
3320
3740
1DC0
1980
0880
0880
ENDCHAR

STARTCHAR X
ENCODING 88
SWIDTH 722 0
DWIDTH 9 0
BBX 8 9 0 0
BITMAP
F7
62
34
38
18
1C
2C
46
EF
ENDCHAR

STARTCHAR Y
ENCODING 89
SWIDTH 722 0
DWIDTH 9 0
BBX 8 9 0 0
BITMAP
F7
62
74
34
38
18
18
18
3C
ENDCHAR

STARTCHAR Z
ENCODING 90
SWIDTH 667 0
DWIDTH 8 0
BBX 7 9 0 0
BITMAP
FE
8E
8C
18
38
30
62
E2
FE
ENDCHAR

STARTCHAR bracketleft
ENCODING 91
SWIDTH 333 0
DWIDTH 4 0
BBX 4 12 0 -3
BITMAP
F0
C0
C0
C0
C0
C0
C0
C0
C0
C0
C0
F0
ENDCHAR

STARTCHAR backslash
ENCODING 92
SWIDTH 278 0
DWIDTH 3 0
BBX 4 8 0 0
BITMAP
80
80
40
40
20
20
10
10
ENDCHAR

STARTCHAR bracketright
ENCODING 93
SWIDTH 333 0
DWIDTH 4 0
BBX 4 12 0 -3
BITMAP
F0
30
30
30
30
30
30
30
30
30
30
F0
ENDCHAR

STARTCHAR asciicircum
ENCODING 94
SWIDTH 581 0
DWIDTH 7 0
BBX 5 4 1 4
BITMAP
20
50
50
88
ENDCHAR

STARTCHAR underscore
ENCODING 95
SWIDTH 500 0
DWIDTH 6 0
BBX 6 1 0 -3
BITMAP
FC
ENDCHAR

STARTCHAR quoteleft
ENCODING 96
SWIDTH 333 0
DWIDTH 4 0
BBX 2 4 1 5
BITMAP
40
80
C0
C0
ENDCHAR

STARTCHAR a
ENCODING 97
SWIDTH 500 0
DWIDTH 6 0
BBX 6 6 0 0
BITMAP
70
D8
D8
78
D8
EC
ENDCHAR

STARTCHAR b
ENCODING 98
SWIDTH 556 0
DWIDTH 7 0
BBX 6 9 0 0
BITMAP
C0
C0
C0
F8
CC
CC
CC
CC
B8
ENDCHAR

STARTCHAR c
ENCODING 99
SWIDTH 444 0
DWIDTH 5 0
BBX 5 6 0 0
BITMAP
78
C8
C0
C0
E8
70
ENDCHAR

STARTCHAR d
ENCODING 100
SWIDTH 556 0
DWIDTH 7 0
BBX 7 9 0 0
BITMAP
0C
0C
0C
7C
CC
CC
CC
CC
76
ENDCHAR

STARTCHAR e
ENCODING 101
SWIDTH 444 0
DWIDTH 5 0
BBX 5 6 0 0
BITMAP
70
D8
F8
C0
C8
70
ENDCHAR

STARTCHAR f
ENCODING 102
SWIDTH 333 0
DWIDTH 4 0
BBX 5 9 0 0
BITMAP
38
78
60
F0
60
60
60
60
F0
ENDCHAR

STARTCHAR g
ENCODING 103
SWIDTH 500 0
DWIDTH 6 0
BBX 5 9 1 -3
BITMAP
78
D8
D8
70
40
F8
F8
88
F0
ENDCHAR

STARTCHAR h
ENCODING 104
SWIDTH 556 0
DWIDTH 7 0
BBX 6 9 0 0
BITMAP
C0
C0
C0
F8
D8
D8
D8
D8
DC
ENDCHAR

STARTCHAR i
ENCODING 105
SWIDTH 278 0
DWIDTH 3 0
BBX 4 9 0 0
BITMAP
60
60
00
E0
60
60
60
60
F0
ENDCHAR

STARTCHAR j
ENCODING 106
SWIDTH 333 0
DWIDTH 4 0
BBX 4 12 0 -3
BITMAP
30
30
00
30
30
30
30
30
30
B0
B0
E0
ENDCHAR

STARTCHAR k
ENCODING 107
SWIDTH 556 0
DWIDTH 7 0
BBX 5 9 1 0
BITMAP
C0
C0
C0
D8
D0
E0
F0
D8
D8
ENDCHAR

STARTCHAR l
ENCODING 108
SWIDTH 278 0
DWIDTH 3 0
BBX 4 9 0 0
BITMAP
E0
60
60
60
60
60
60
60
F0
ENDCHAR

STARTCHAR m
ENCODING 109
SWIDTH 833 0
DWIDTH 10 0
BBX 8 6 1 0
BITMAP
DB
FF
DB
DB
DB
DB
ENDCHAR

STARTCHAR n
ENCODING 110
SWIDTH 556 0
DWIDTH 7 0
BBX 6 6 0 0
BITMAP
D8
F8
D8
D8
D8
DC
ENDCHAR

STARTCHAR o
ENCODING 111
SWIDTH 500 0
DWIDTH 6 0
BBX 6 6 0 0
BITMAP
78
CC
CC
CC
CC
78
ENDCHAR

STARTCHAR p
ENCODING 112
SWIDTH 556 0
DWIDTH 7 0
BBX 6 9 0 -3
BITMAP
D8
EC
CC
CC
CC
F8
C0
C0
C0
ENDCHAR

STARTCHAR q
ENCODING 113
SWIDTH 556 0
DWIDTH 7 0
BBX 7 9 0 -3
BITMAP
74
CC
CC
CC
CC
7C
0C
0C
1E
ENDCHAR

STARTCHAR r
ENCODING 114
SWIDTH 444 0
DWIDTH 5 0
BBX 5 6 0 0
BITMAP
F8
D8
C0
C0
C0
C0
ENDCHAR

STARTCHAR s
ENCODING 115
SWIDTH 389 0
DWIDTH 5 0
BBX 4 6 0 0
BITMAP
70
D0
E0
70
B0
E0
ENDCHAR

STARTCHAR t
ENCODING 116
SWIDTH 333 0
DWIDTH 4 0
BBX 5 8 0 0
BITMAP
20
60
F0
60
60
60
68
70
ENDCHAR

STARTCHAR u
ENCODING 117
SWIDTH 556 0
DWIDTH 7 0
BBX 6 6 0 0
BITMAP
D8
D8
D8
D8
D8
EC
ENDCHAR

STARTCHAR v
ENCODING 118
SWIDTH 500 0
DWIDTH 6 0
BBX 6 6 0 0
BITMAP
EC
C8
68
70
20
20
ENDCHAR

STARTCHAR w
ENCODING 119
SWIDTH 722 0
DWIDTH 9 0
BBX 8 6 0 0
BITMAP
FB
D2
7A
7C
28
28
ENDCHAR

STARTCHAR x
ENCODING 120
SWIDTH 500 0
DWIDTH 6 0
BBX 6 6 0 0
BITMAP
EC
68
30
30
58
DC
ENDCHAR

STARTCHAR y
ENCODING 121
SWIDTH 500 0
DWIDTH 6 0
BBX 5 9 0 -3
BITMAP
E8
48
68
28
30
30
10
A0
E0
ENDCHAR

STARTCHAR z
ENCODING 122
SWIDTH 444 0
DWIDTH 5 0
BBX 5 6 0 0
BITMAP
F8
98
30
60
C8
F8
ENDCHAR

STARTCHAR braceleft
ENCODING 123
SWIDTH 394 0
DWIDTH 5 0
BBX 4 12 0 -3
BITMAP
30
60
60
60
60
C0
C0
60
60
60
60
30
ENDCHAR

STARTCHAR bar
ENCODING 124
SWIDTH 220 0
DWIDTH 3 0
BBX 1 8 1 0
BITMAP
80
80
80
80
80
80
80
80
ENDCHAR

STARTCHAR braceright
ENCODING 125
SWIDTH 394 0
DWIDTH 5 0
BBX 4 12 0 -3
BITMAP
C0
60
60
60
60
30
30
60
60
60
60
C0
ENDCHAR

STARTCHAR asciitilde
ENCODING 126
SWIDTH 520 0
DWIDTH 6 0
BBX 6 3 0 3
BITMAP
64
FC
98
ENDCHAR

STARTCHAR exclamdown
ENCODING 161
SWIDTH 333 0
DWIDTH 4 0
BBX 2 9 1 -3
BITMAP
C0
C0
00
C0
C0
C0
C0
C0
C0
ENDCHAR

STARTCHAR cent
ENCODING 162
SWIDTH 500 0
DWIDTH 6 0
BBX 5 9 1 -1
BITMAP
20
20
78
F8
A0
A0
E8
70
20
ENDCHAR

STARTCHAR sterling
ENCODING 163
SWIDTH 500 0
DWIDTH 6 0
BBX 6 9 0 0
BITMAP
3C
6C
60
60
F8
20
64
BC
58
ENDCHAR

STARTCHAR currency
ENCODING 164
SWIDTH 500 0
DWIDTH 6 0
BBX 7 7 0 1
BITMAP
82
7C
44
44
44
7C
82
ENDCHAR

STARTCHAR yen
ENCODING 165
SWIDTH 500 0
DWIDTH 6 0
BBX 7 9 0 0
BITMAP
F6
62
34
7E
18
7E
18
18
3C
ENDCHAR

STARTCHAR brokenbar
ENCODING 166
SWIDTH 220 0
DWIDTH 3 0
BBX 1 9 1 0
BITMAP
80
80
80
80
00
80
80
80
80
ENDCHAR

STARTCHAR section
ENCODING 167
SWIDTH 500 0
DWIDTH 6 0
BBX 5 12 1 -3
BITMAP
78
D8
C0
60
B0
98
C8
68
30
18
D8
F0
ENDCHAR

STARTCHAR dieresis
ENCODING 168
SWIDTH 333 0
DWIDTH 4 0
BBX 4 2 0 6
BITMAP
90
90
ENDCHAR

STARTCHAR copyright
ENCODING 169
SWIDTH 747 0
DWIDTH 9 0
BBX 9 9 0 0
BITMAP
3E00
4100
9C80
A480
A080
A480
9880
4100
3E00
ENDCHAR

STARTCHAR ordfeminine
ENCODING 170
SWIDTH 300 0
DWIDTH 4 0
BBX 3 5 0 4
BITMAP
E0
20
E0
E0
E0
ENDCHAR

STARTCHAR guillemotleft
ENCODING 171
SWIDTH 500 0
DWIDTH 6 0
BBX 4 6 1 0
BITMAP
50
50
A0
A0
50
50
ENDCHAR

STARTCHAR logicalnot
ENCODING 172
SWIDTH 570 0
DWIDTH 7 0
BBX 6 4 0 0
BITMAP
FC
04
04
04
ENDCHAR

STARTCHAR hyphen
ENCODING 173
SWIDTH 333 0
DWIDTH 4 0
BBX 3 2 0 2
BITMAP
E0
E0
ENDCHAR

STARTCHAR registered
ENCODING 174
SWIDTH 747 0
DWIDTH 9 0
BBX 9 9 0 0
BITMAP
3E00
4100
BC80
9480
9880
9480
B280
4100
3E00
ENDCHAR

STARTCHAR macron
ENCODING 175
SWIDTH 333 0
DWIDTH 4 0
BBX 3 1 0 6
BITMAP
E0
ENDCHAR

STARTCHAR degree
ENCODING 176
SWIDTH 400 0
DWIDTH 6 0
BBX 4 4 1 5
BITMAP
60
90
90
60
ENDCHAR

STARTCHAR plusminus
ENCODING 177
SWIDTH 570 0
DWIDTH 7 0
BBX 5 7 1 1
BITMAP
20
20
F8
20
20
00
F8
ENDCHAR

STARTCHAR twosuperior
ENCODING 178
SWIDTH 300 0
DWIDTH 4 0
BBX 3 5 -3 4
BITMAP
E0
A0
20
40
E0
ENDCHAR

STARTCHAR threesuperior
ENCODING 179
SWIDTH 300 0
DWIDTH 4 0
BBX 3 5 -3 4
BITMAP
E0
20
40
20
C0
ENDCHAR

STARTCHAR acute
ENCODING 180
SWIDTH 333 0
DWIDTH 4 0
BBX 3 2 1 7
BITMAP
60
C0
ENDCHAR

STARTCHAR mu
ENCODING 181
SWIDTH 556 0
DWIDTH 7 0
BBX 7 9 0 -3
BITMAP
EC
6C
6C
6C
6C
76
40
60
60
ENDCHAR

STARTCHAR paragraph
ENCODING 182
SWIDTH 540 0
DWIDTH 6 0
BBX 6 12 0 -3
BITMAP
7C
E8
E8
E8
68
28
28
28
28
28
28
28
ENDCHAR

STARTCHAR periodcentered
ENCODING 183
SWIDTH 250 0
DWIDTH 6 0
BBX 3 3 2 3
BITMAP
E0
E0
E0
ENDCHAR

STARTCHAR cedilla
ENCODING 184
SWIDTH 333 0
DWIDTH 4 0
BBX 3 3 1 -3
BITMAP
40
20
E0
ENDCHAR

STARTCHAR onesuperior
ENCODING 185
SWIDTH 300 0
DWIDTH 4 0
BBX 3 5 -3 4
BITMAP
40
C0
40
40
E0
ENDCHAR

STARTCHAR ordmasculine
ENCODING 186
SWIDTH 330 0
DWIDTH 4 0
BBX 3 5 0 4
BITMAP
E0
A0
E0
00
E0
ENDCHAR

STARTCHAR guillemotright
ENCODING 187
SWIDTH 500 0
DWIDTH 6 0
BBX 4 6 1 0
BITMAP
A0
A0
50
50
A0
A0
ENDCHAR

STARTCHAR onequarter
ENCODING 188
SWIDTH 750 0
DWIDTH 9 0
BBX 9 9 2 0
BITMAP
4100
C200
4200
4400
EC80
0980
1280
1380
2080
ENDCHAR

STARTCHAR onehalf
ENCODING 189
SWIDTH 750 0
DWIDTH 9 0
BBX 9 9 2 0
BITMAP
4200
C400
4400
4800
FB80
1280
2080
2100
4380
ENDCHAR

STARTCHAR threequarters
ENCODING 190
SWIDTH 750 0
DWIDTH 9 0
BBX 9 9 2 0
BITMAP
E100
2200
4200
2400
CC80
0980
1280
1380
2080
ENDCHAR

STARTCHAR questiondown
ENCODING 191
SWIDTH 500 0
DWIDTH 6 0
BBX 5 10 0 -4
BITMAP
30
30
00
20
20
40
C0
D8
D8
70
ENDCHAR

STARTCHAR Agrave
ENCODING 192
SWIDTH 722 0
DWIDTH 9 0
BBX 8 12 0 0
BITMAP
30
18
00
10
10
18
38
2C
2C
7E
46
EF
ENDCHAR

STARTCHAR Aacute
ENCODING 193
SWIDTH 722 0
DWIDTH 9 0
BBX 8 12 0 0
BITMAP
0C
18
00
10
10
18
38
2C
2C
7E
46
EF
ENDCHAR

STARTCHAR Acircumflex
ENCODING 194
SWIDTH 722 0
DWIDTH 9 0
BBX 8 12 0 0
BITMAP
10
28
00
10
10
18
38
2C
2C
7E
46
EF
ENDCHAR

STARTCHAR Atilde
ENCODING 195
SWIDTH 722 0
DWIDTH 9 0
BBX 8 12 0 0
BITMAP
34
2C
00
10
10
18
38
2C
2C
7E
46
EF
ENDCHAR

STARTCHAR Adieresis
ENCODING 196
SWIDTH 722 0
DWIDTH 9 0
BBX 8 12 0 0
BITMAP
28
28
00
10
10
18
38
2C
2C
7E
46
EF
ENDCHAR

STARTCHAR Aring
ENCODING 197
SWIDTH 722 0
DWIDTH 9 0
BBX 8 13 0 0
BITMAP
38
28
38
00
10
10
18
38
2C
2C
7E
46
EF
ENDCHAR

STARTCHAR AE
ENCODING 198
SWIDTH 1000 0
DWIDTH 12 0
BBX 12 9 0 0
BITMAP
1FE0
0E20
16A0
1680
3F80
2680
4690
4630
EFE0
ENDCHAR

STARTCHAR Ccedilla
ENCODING 199
SWIDTH 722 0
DWIDTH 9 0
BBX 7 12 1 -3
BITMAP
3E
62
C2
C0
C0
C0
C0
62
3C
10
08
38
ENDCHAR

STARTCHAR Egrave
ENCODING 200
SWIDTH 667 0
DWIDTH 8 0
BBX 8 12 0 0
BITMAP
30
18
00
FE
62
6A
68
78
68
69
63
FF
ENDCHAR

STARTCHAR Eacute
ENCODING 201
SWIDTH 667 0
DWIDTH 8 0
BBX 8 12 0 0
BITMAP
0C
18
00
FE
62
6A
68
78
68
69
63
FF
ENDCHAR

STARTCHAR Ecircumflex
ENCODING 202
SWIDTH 667 0
DWIDTH 8 0
BBX 8 12 0 0
BITMAP
10
28
00
FE
62
6A
68
78
68
69
63
FF
ENDCHAR

STARTCHAR Edieresis
ENCODING 203
SWIDTH 667 0
DWIDTH 8 0
BBX 8 12 0 0
BITMAP
28
28
00
FE
62
6A
68
78
68
69
63
FF
ENDCHAR

STARTCHAR Igrave
ENCODING 204
SWIDTH 389 0
DWIDTH 5 0
BBX 4 12 0 0
BITMAP
C0
60
00
F0
60
60
60
60
60
60
60
F0
ENDCHAR

STARTCHAR Iacute
ENCODING 205
SWIDTH 389 0
DWIDTH 5 0
BBX 4 12 0 0
BITMAP
30
60
00
F0
60
60
60
60
60
60
60
F0
ENDCHAR

STARTCHAR Icircumflex
ENCODING 206
SWIDTH 389 0
DWIDTH 5 0
BBX 4 12 0 0
BITMAP
60
90
00
F0
60
60
60
60
60
60
60
F0
ENDCHAR

STARTCHAR Idieresis
ENCODING 207
SWIDTH 389 0
DWIDTH 5 0
BBX 4 12 0 0
BITMAP
90
90
00
F0
60
60
60
60
60
60
60
F0
ENDCHAR

STARTCHAR Eth
ENCODING 208
SWIDTH 722 0
DWIDTH 9 0
BBX 8 9 0 0
BITMAP
FC
66
63
63
F3
63
63
66
FC
ENDCHAR

STARTCHAR Ntilde
ENCODING 209
SWIDTH 722 0
DWIDTH 9 0
BBX 9 12 0 0
BITMAP
3A00
2E00
0000
E380
7100
7900
5900
4D00
4F00
4700
4300
E100
ENDCHAR

STARTCHAR Ograve
ENCODING 210
SWIDTH 778 0
DWIDTH 9 0
BBX 8 12 1 0
BITMAP
30
18
00
3C
66
C3
C3
C3
C3
C3
66
3C
ENDCHAR

STARTCHAR Oacute
ENCODING 211
SWIDTH 778 0
DWIDTH 9 0
BBX 8 12 1 0
BITMAP
0C
18
00
3C
66
C3
C3
C3
C3
C3
66
3C
ENDCHAR

STARTCHAR Ocircumflex
ENCODING 212
SWIDTH 778 0
DWIDTH 9 0
BBX 8 12 1 0
BITMAP
18
24
00
3C
66
C3
C3
C3
C3
C3
66
3C
ENDCHAR

STARTCHAR Otilde
ENCODING 213
SWIDTH 778 0
DWIDTH 9 0
BBX 8 12 1 0
BITMAP
34
2C
00
3C
66
C3
C3
C3
C3
C3
66
3C
ENDCHAR

STARTCHAR Odieresis
ENCODING 214
SWIDTH 778 0
DWIDTH 9 0
BBX 8 12 1 0
BITMAP
24
24
00
3C
66
C3
C3
C3
C3
C3
66
3C
ENDCHAR

STARTCHAR multiply
ENCODING 215
SWIDTH 570 0
DWIDTH 7 0
BBX 5 5 1 1
BITMAP
88
50
20
50
88
ENDCHAR

STARTCHAR Oslash
ENCODING 216
SWIDTH 778 0
DWIDTH 9 0
BBX 8 9 1 0
BITMAP
3D
66
C7
CB
CB
D3
E3
66
7C
ENDCHAR

STARTCHAR Ugrave
ENCODING 217
SWIDTH 722 0
DWIDTH 9 0
BBX 9 12 0 0
BITMAP
1800
0C00
0000
F380
6100
6100
6100
6100
6100
6100
6300
3E00
ENDCHAR

STARTCHAR Uacute
ENCODING 218
SWIDTH 722 0
DWIDTH 9 0
BBX 9 12 0 0
BITMAP
0600
0C00
0000
F380
6100
6100
6100
6100
6100
6100
6300
3E00
ENDCHAR

STARTCHAR Ucircumflex
ENCODING 219
SWIDTH 722 0
DWIDTH 9 0
BBX 9 12 0 0
BITMAP
0C00
1200
0000
F380
6100
6100
6100
6100
6100
6100
6300
3E00
ENDCHAR

STARTCHAR Udieresis
ENCODING 220
SWIDTH 722 0
DWIDTH 9 0
BBX 9 12 0 0
BITMAP
1200
1200
0000
F380
6100
6100
6100
6100
6100
6100
6300
3E00
ENDCHAR

STARTCHAR Yacute
ENCODING 221
SWIDTH 722 0
DWIDTH 9 0
BBX 8 12 0 0
BITMAP
0C
18
00
F7
62
76
34
38
18
18
18
3C
ENDCHAR

STARTCHAR Thorn
ENCODING 222
SWIDTH 611 0
DWIDTH 7 0
BBX 7 9 0 0
BITMAP
F0
60
7C
66
66
66
7C
60
F0
ENDCHAR

STARTCHAR germandbls
ENCODING 223
SWIDTH 556 0
DWIDTH 7 0
BBX 7 9 0 0
BITMAP
3C
64
6C
68
64
66
66
66
EC
ENDCHAR

STARTCHAR agrave
ENCODING 224
SWIDTH 500 0
DWIDTH 6 0
BBX 6 9 0 0
BITMAP
60
30
00
70
D8
D8
78
D8
EC
ENDCHAR

STARTCHAR aacute
ENCODING 225
SWIDTH 500 0
DWIDTH 6 0
BBX 6 9 0 0
BITMAP
18
30
00
70
D8
D8
78
D8
EC
ENDCHAR

STARTCHAR acircumflex
ENCODING 226
SWIDTH 500 0
DWIDTH 6 0
BBX 6 9 0 0
BITMAP
20
50
00
70
D8
D8
78
D8
EC
ENDCHAR

STARTCHAR atilde
ENCODING 227
SWIDTH 500 0
DWIDTH 6 0
BBX 6 9 0 0
BITMAP
68
58
00
70
D8
D8
78
D8
EC
ENDCHAR

STARTCHAR adieresis
ENCODING 228
SWIDTH 500 0
DWIDTH 6 0
BBX 6 9 0 0
BITMAP
50
50
00
70
D8
D8
78
D8
EC
ENDCHAR

STARTCHAR aring
ENCODING 229
SWIDTH 500 0
DWIDTH 6 0
BBX 6 10 0 0
BITMAP
20
50
20
00
70
D8
D8
78
D8
EC
ENDCHAR

STARTCHAR ae
ENCODING 230
SWIDTH 722 0
DWIDTH 9 0
BBX 8 6 0 0
BITMAP
76
DB
DF
78
D9
EE
ENDCHAR

STARTCHAR ccedilla
ENCODING 231
SWIDTH 444 0
DWIDTH 5 0
BBX 5 9 0 -3
BITMAP
78
C8
C0
C0
E8
70
20
10
70
ENDCHAR

STARTCHAR egrave
ENCODING 232
SWIDTH 444 0
DWIDTH 5 0
BBX 5 9 0 0
BITMAP
60
30
00
70
D8
F8
C0
C8
70
ENDCHAR

STARTCHAR eacute
ENCODING 233
SWIDTH 444 0
DWIDTH 5 0
BBX 5 9 0 0
BITMAP
30
60
00
70
D8
F8
C0
C8
70
ENDCHAR

STARTCHAR ecircumflex
ENCODING 234
SWIDTH 444 0
DWIDTH 5 0
BBX 5 9 0 0
BITMAP
20
50
00
70
D8
F8
C0
C8
70
ENDCHAR

STARTCHAR edieresis
ENCODING 235
SWIDTH 444 0
DWIDTH 5 0
BBX 5 9 0 0
BITMAP
50
50
00
70
D8
F8
C0
C8
70
ENDCHAR

STARTCHAR igrave
ENCODING 236
SWIDTH 278 0
DWIDTH 3 0
BBX 4 9 0 0
BITMAP
C0
60
00
E0
60
60
60
60
F0
ENDCHAR

STARTCHAR iacute
ENCODING 237
SWIDTH 278 0
DWIDTH 3 0
BBX 4 9 0 0
BITMAP
30
60
00
E0
60
60
60
60
F0
ENDCHAR

STARTCHAR icircumflex
ENCODING 238
SWIDTH 278 0
DWIDTH 3 0
BBX 4 9 0 0
BITMAP
60
90
00
E0
60
60
60
60
F0
ENDCHAR

STARTCHAR idieresis
ENCODING 239
SWIDTH 278 0
DWIDTH 3 0
BBX 4 9 0 0
BITMAP
90
90
00
E0
60
60
60
60
F0
ENDCHAR

STARTCHAR eth
ENCODING 240
SWIDTH 500 0
DWIDTH 6 0
BBX 6 9 0 0
BITMAP
E4
18
6C
7C
CC
CC
CC
CC
78
ENDCHAR

STARTCHAR ntilde
ENCODING 241
SWIDTH 556 0
DWIDTH 7 0
BBX 6 9 0 0
BITMAP
68
58
00
D8
F8
D8
D8
D8
DC
ENDCHAR

STARTCHAR ograve
ENCODING 242
SWIDTH 500 0
DWIDTH 6 0
BBX 6 9 0 0
BITMAP
60
30
00
78
CC
CC
CC
CC
78
ENDCHAR

STARTCHAR oacute
ENCODING 243
SWIDTH 500 0
DWIDTH 6 0
BBX 6 9 0 0
BITMAP
18
30
00
78
CC
CC
CC
CC
78
ENDCHAR

STARTCHAR ocircumflex
ENCODING 244
SWIDTH 500 0
DWIDTH 6 0
BBX 6 9 0 0
BITMAP
30
48
00
78
CC
CC
CC
CC
78
ENDCHAR

STARTCHAR otilde
ENCODING 245
SWIDTH 500 0
DWIDTH 6 0
BBX 6 9 0 0
BITMAP
68
58
00
78
CC
CC
CC
CC
78
ENDCHAR

STARTCHAR odieresis
ENCODING 246
SWIDTH 500 0
DWIDTH 6 0
BBX 6 9 0 0
BITMAP
48
48
00
78
CC
CC
CC
CC
78
ENDCHAR

STARTCHAR divide
ENCODING 247
SWIDTH 570 0
DWIDTH 7 0
BBX 6 7 0 0
BITMAP
30
30
00
FC
00
30
30
ENDCHAR

STARTCHAR oslash
ENCODING 248
SWIDTH 500 0
DWIDTH 6 0
BBX 6 7 0 0
BITMAP
04
78
CC
DC
EC
CC
F8
ENDCHAR

STARTCHAR ugrave
ENCODING 249
SWIDTH 556 0
DWIDTH 7 0
BBX 6 9 0 0
BITMAP
60
30
00
D8
D8
D8
D8
D8
EC
ENDCHAR

STARTCHAR uacute
ENCODING 250
SWIDTH 556 0
DWIDTH 7 0
BBX 6 9 0 0
BITMAP
18
30
00
D8
D8
D8
D8
D8
EC
ENDCHAR

STARTCHAR ucircumflex
ENCODING 251
SWIDTH 556 0
DWIDTH 7 0
BBX 6 9 0 0
BITMAP
30
48
00
D8
D8
D8
D8
D8
EC
ENDCHAR

STARTCHAR udieresis
ENCODING 252
SWIDTH 556 0
DWIDTH 7 0
BBX 6 9 0 0
BITMAP
50
50
00
D8
D8
D8
D8
D8
EC
ENDCHAR

STARTCHAR yacute
ENCODING 253
SWIDTH 500 0
DWIDTH 6 0
BBX 5 12 0 -3
BITMAP
18
30
00
E8
48
68
28
30
30
10
A0
E0
ENDCHAR

STARTCHAR thorn
ENCODING 254
SWIDTH 556 0
DWIDTH 7 0
BBX 6 12 0 -3
BITMAP
C0
C0
C0
F8
CC
CC
CC
CC
F8
C0
C0
C0
ENDCHAR

STARTCHAR ydieresis
ENCODING 255
SWIDTH 500 0
DWIDTH 6 0
BBX 5 12 0 -3
BITMAP
48
48
00
E8
48
68
28
30
30
10
A0
E0
ENDCHAR
ENDFONT
